<?xml version="1.0" encoding="utf-8"?>
<!-- Generator: Adobe Illustrator 26.5.0, SVG Export Plug-In . SVG Version: 6.00 Build 0)  -->
<svg version="1.1" id="Camada_1" xmlns="http://www.w3.org/2000/svg" xmlns:xlink="http://www.w3.org/1999/xlink" x="0px" y="0px"
	 viewBox="0 0 104.759 104.759" enable-background="new 0 0 104.759 104.759" xml:space="preserve">
<g>
	<defs>
		
			<ellipse id="SVGID_1_" transform="matrix(0.9732 -0.2298 0.2298 0.9732 -9.869 17.607)" cx="70.675" cy="51.184" rx="6.128" ry="6.128"/>
	</defs>
	<clipPath id="SVGID_00000125577767739535668410000012431936114448032421_">
		<use xlink:href="#SVGID_1_"  overflow="visible"/>
	</clipPath>
	
		<linearGradient id="SVGID_00000150073537379939222340000010588551525444237741_" gradientUnits="userSpaceOnUse" x1="4.7373" y1="102.2693" x2="103.0352" y2="3.9714">
		<stop  offset="0" style="stop-color:#83D7F9"/>
		<stop  offset="0.2" style="stop-color:#8FE0FC"/>
		<stop  offset="0.5207" style="stop-color:#BD8EF8"/>
		<stop  offset="0.667" style="stop-color:#F585FA"/>
		<stop  offset="1" style="stop-color:#FDE0FE"/>
	</linearGradient>
	
		<rect x="4.737" y="3.971" clip-path="url(#SVGID_00000125577767739535668410000012431936114448032421_)" fill="url(#SVGID_00000150073537379939222340000010588551525444237741_)" width="98.298" height="98.298"/>
</g>
<g>
	<defs>
		
			<ellipse id="SVGID_00000088118158516900941230000002149407755401291708_" transform="matrix(0.7071 -0.7071 0.7071 0.7071 -25.5628 40.6541)" cx="36.292" cy="51.184" rx="6.128" ry="6.128"/>
	</defs>
	<clipPath id="SVGID_00000016792864770980552390000010504747257953801350_">
		<use xlink:href="#SVGID_00000088118158516900941230000002149407755401291708_"  overflow="visible"/>
	</clipPath>
	
		<linearGradient id="SVGID_00000170271818792426696660000015564366899162766464_" gradientUnits="userSpaceOnUse" x1="4.7373" y1="102.2693" x2="103.0352" y2="3.9714">
		<stop  offset="0" style="stop-color:#83D7F9"/>
		<stop  offset="0.2" style="stop-color:#8FE0FC"/>
		<stop  offset="0.5207" style="stop-color:#BD8EF8"/>
		<stop  offset="0.667" style="stop-color:#F585FA"/>
		<stop  offset="1" style="stop-color:#FDE0FE"/>
	</linearGradient>
	
		<rect x="4.737" y="3.971" clip-path="url(#SVGID_00000016792864770980552390000010504747257953801350_)" fill="url(#SVGID_00000170271818792426696660000015564366899162766464_)" width="98.298" height="98.298"/>
</g>
<g>
	<defs>
		<path id="SVGID_00000018915145750635653470000000586816722703125167_" d="M61.764,60.072c-1.933,0-3.5,1.567-3.5,3.5
			c0,2.636-2.145,4.78-4.78,4.78s-4.78-2.145-4.78-4.78c0-1.933-1.567-3.5-3.5-3.5s-3.5,1.567-3.5,3.5
			c0,6.496,5.284,11.78,11.78,11.78s11.78-5.284,11.78-11.78C65.264,61.639,63.697,60.072,61.764,60.072z"/>
	</defs>
	<clipPath id="SVGID_00000121966773704557455130000012538797655654040243_">
		<use xlink:href="#SVGID_00000018915145750635653470000000586816722703125167_"  overflow="visible"/>
	</clipPath>
	
		<linearGradient id="SVGID_00000145056590021221746530000002116781773846306956_" gradientUnits="userSpaceOnUse" x1="4.7373" y1="102.2693" x2="103.0352" y2="3.9714">
		<stop  offset="0" style="stop-color:#83D7F9"/>
		<stop  offset="0.2" style="stop-color:#8FE0FC"/>
		<stop  offset="0.5207" style="stop-color:#BD8EF8"/>
		<stop  offset="0.667" style="stop-color:#F585FA"/>
		<stop  offset="1" style="stop-color:#FDE0FE"/>
	</linearGradient>
	
		<rect x="4.737" y="3.971" clip-path="url(#SVGID_00000121966773704557455130000012538797655654040243_)" fill="url(#SVGID_00000145056590021221746530000002116781773846306956_)" width="98.298" height="98.298"/>
</g>
<g>
	<defs>
		<path id="SVGID_00000106148742137469352490000012291971204379699340_" d="M53.484,9.092c-24.113,0-43.73,19.617-43.73,43.73
			s19.617,43.73,43.73,43.73s43.73-19.617,43.73-43.73S77.597,9.092,53.484,9.092z M53.484,89.553
			c-20.253,0-36.73-16.478-36.73-36.73s16.478-36.73,36.73-36.73s36.73,16.478,36.73,36.73S73.737,89.553,53.484,89.553z"/>
	</defs>
	<clipPath id="SVGID_00000160898001124843526310000001632020254284573885_">
		<use xlink:href="#SVGID_00000106148742137469352490000012291971204379699340_"  overflow="visible"/>
	</clipPath>
	
		<linearGradient id="SVGID_00000145035182384017468100000003892670170696254397_" gradientUnits="userSpaceOnUse" x1="4.7373" y1="102.2693" x2="103.0352" y2="3.9714">
		<stop  offset="0" style="stop-color:#83D7F9"/>
		<stop  offset="0.2" style="stop-color:#8FE0FC"/>
		<stop  offset="0.5207" style="stop-color:#BD8EF8"/>
		<stop  offset="0.667" style="stop-color:#F585FA"/>
		<stop  offset="1" style="stop-color:#FDE0FE"/>
	</linearGradient>
	
		<rect x="4.737" y="3.971" clip-path="url(#SVGID_00000160898001124843526310000001632020254284573885_)" fill="url(#SVGID_00000145035182384017468100000003892670170696254397_)" width="98.298" height="98.298"/>
</g>
<g>
	<circle cx="181.697" cy="98.078" r="6.128"/>
	<circle cx="147.314" cy="98.078" r="6.128"/>
	<path fill="none" stroke="#000000" stroke-width="7" stroke-linecap="round" stroke-miterlimit="10" d="M172.786,110.466
		c0,4.573-3.707,8.28-8.28,8.28c-4.573,0-8.28-3.707-8.28-8.28"/>
</g>
<circle fill="none" stroke="#000000" stroke-width="7" stroke-linecap="round" stroke-miterlimit="10" cx="164.506" cy="99.716" r="40.231"/>
</svg>
